<svg width="268" height="216" fill="none" xmlns="http://www.w3.org/2000/svg"><g clip-path="url(#clip0_8844_87)"><path d="M158.419 114.092c-2.358-11.926-6.66-23.019-7.871-34.052-.262-2.383-2.148-4.383-4.252-4.218-2.105.165-6.673 3.188-7.849 12.496-.852 6.738 4.65 15.575 1.833 18.415s20.219 8.667 18.139 7.359z" fill="#F5C1C7"/><path d="M84.822 24.857c-5.157 1.604-9.18 24.804-10.779 31.685-9.76 42.012-23.121 90.697-24.308 95.802-1.482 6.382.988 7.516 3.984 9.333 2.995 1.817 62.532 16.209 67.689 14.605 4.126-1.284 6.609-10.796 6.609-10.796 9.606-40.365 26.26-113.62 26.532-117.144.34-4.404.958-7.063-1.389-8.73-2.347-1.666-9.697-3.373-13.371-4.227-16.604-4.044-46.863-13.05-54.967-10.528z" fill="#5992E8"/><path opacity=".4" d="M116.015 67.869c1.93 1.96 2.691 3.801 2.589 6.55-.193 5.19-7.221 7.527-12.405 7.216a8.183 8.183 0 01-1.014-.12c-2.563-.48-5.215-5.634-4.299-9.66 1.287-5.655 10.284-7.846 14.834-4.25.105.084.204.172.295.264zm-3.126-6.13c-1.031 1.4-2.879 2.502-4.012 2.798-.412.107-.819-.075-1.147-.347-.215-.178-.404-.398-.426-.677-.038-.487.094-1.328.747-2.502.601-1.082 2.398-1.914 4.036-2.447 1.22-.397 2.105.422 1.63 1.613-.222.554-.502 1.117-.828 1.562z" fill="#FAF8F9"/><circle opacity=".4" cx="140.042" cy="50.377" r="3.63" transform="rotate(37.046 140.042 50.377)" fill="#FAF8F9"/><path d="M180.171 155.615c-21.315-18.62-17.884-31.639-21.707-41.661-2.242-5.877-12.481-15.84-14.524-6.963-.944 4.102-12.352-2.116-14.432-3.424-6.21-3.906-13.405-10.022-18.599-13.94-4.451-3.357-9.716-8.51-10.481-2.508-.764 6.002 11.272 19.37 14.632 23.829 3.36 4.458 6.719 8.917 1.378 10.379-5.342 1.463-26.264-19.288-33.094-21.555-6.83-2.267-10.3-.076 2.303 14.678 12.604 14.753 14.364 22.132 13.237 23.268-1.126 1.136-2.253 2.272-15.621-6.48-13.368-8.751-22.632-11.18-24.322-9.476-1.69 1.704-.475 3.763 1.015 5.514 4.49 5.276 23.92 20.344 25.318 22.857 1.022 1.837-.96 2.442-2.345 2.365-12.913-.717-26.212-3.648-27.992-3.16-1.781.487-3.38 3.407-.111 6.65 2.156 2.139 11.654 7.428 16.456 9.561 11.594 6.617 59.496 30.083 63.463 31.314 4.959 1.538-4.197-2.986.939-5.932 9.895-5.676 15.087-11.234 21.947-19.23 5.959-6.945 43.855 2.533 22.54-16.086z" fill="#F5C1C7"/><path d="M228.324 179.662c-19.158-9.092-55.192-30.099-60.542-38.36-.074-.128-.15-.255-.23-.382.069.124.146.251.23.382 11.775 20.326-52.21 42.343-34.221 53.959 18.103 11.688 156.373 77.793 159.535 59.746 1.855-10.591 24.211-4.735 26.913-15.001 3.191-12.123 28.76-14.149 23.623-21.413-5.137-7.265-95.847-29.695-115.308-38.931z" fill="#F5C1C7"/></g><defs><clipPath id="clip0_8844_87"><path fill="#fff" d="M0 0h268v216H0z"/></clipPath></defs></svg>